# Blender v3.6.1 OBJ File: 'Water tank.blend'
# www.blender.org
mtllib controlbox1.mtl
o Cube.003_Cube
v 8.600823 0.833436 4.133481
v 8.408032 0.729591 4.105038
v 8.263887 0.513882 4.045443
v 8.414420 0.726094 4.106707
v 8.238085 0.535104 4.038701
v 8.420024 0.721375 4.108171
v 8.263887 0.833436 4.045443
v 8.238085 0.812214 4.038701
v 8.268584 0.828960 4.046761
v 8.622924 0.812214 4.154390
v 8.243505 0.808333 4.040208
v 8.597121 0.513882 4.147648
v 8.268584 0.518357 4.046761
v 8.243505 0.538984 4.040208
v 8.293076 0.828960 3.953029
v 8.267996 0.808333 3.946476
v 8.267996 0.538984 3.946476
v 8.293076 0.518357 3.953029
v 8.596083 0.828960 4.132333
v 8.621162 0.808333 4.138885
v 8.622924 0.535104 4.154390
v 8.596083 0.518357 4.132333
v 8.594742 0.535104 4.156754
v 8.621162 0.538984 4.138885
v 8.645654 0.808333 4.045154
v 8.620573 0.828960 4.038601
v 8.620573 0.518357 4.038601
v 8.645654 0.538984 4.045154
v 8.626626 0.812214 4.140223
v 8.626626 0.535104 4.140223
v 8.600823 0.513882 4.133481
v 8.424630 0.715618 4.109375
v 8.594742 0.812214 4.156754
v 8.597121 0.833436 4.147648
v 8.260186 0.513882 4.059611
v 8.234384 0.535104 4.052869
v 8.257807 0.535104 4.068717
v 8.234384 0.812214 4.052869
v 8.260186 0.833436 4.059611
v 8.257807 0.812214 4.068717
v 8.401108 0.731734 4.103229
v 8.393912 0.732439 4.101348
v 8.386722 0.731680 4.099469
v 8.379812 0.729485 4.097664
v 8.373449 0.725939 4.096002
v 8.367879 0.721178 4.094546
v 8.363314 0.715386 4.093353
v 8.359930 0.708784 4.092469
v 8.357857 0.701627 4.091928
v 8.357175 0.694189 4.091749
v 8.357909 0.686757 4.091941
v 8.360033 0.679616 4.092496
v 8.363463 0.673040 4.093392
v 8.368070 0.667282 4.094596
v 8.373674 0.662564 4.096060
v 8.380061 0.659066 4.097729
v 8.386986 0.656924 4.099538
v 8.394182 0.656219 4.101419
v 8.401373 0.656978 4.103298
v 8.408282 0.659173 4.105103
v 8.414644 0.662719 4.106765
v 8.420215 0.667479 4.108221
v 8.424780 0.673272 4.109414
v 8.428164 0.679874 4.110298
v 8.430237 0.687031 4.110839
v 8.430920 0.694468 4.111018
v 8.430184 0.701901 4.110826
v 8.428061 0.709042 4.110271
v 8.398090 0.731734 4.114778
v 8.405015 0.729591 4.116587
v 8.411403 0.726094 4.118256
v 8.417006 0.721375 4.119720
v 8.421613 0.715618 4.120924
v 8.390894 0.732439 4.112897
v 8.383703 0.731680 4.111019
v 8.376794 0.729485 4.109213
v 8.370432 0.725939 4.107551
v 8.364861 0.721178 4.106095
v 8.360296 0.715386 4.104902
v 8.356912 0.708784 4.104018
v 8.354839 0.701627 4.103477
v 8.354157 0.694189 4.103298
v 8.354892 0.686757 4.103490
v 8.357016 0.679616 4.104045
v 8.360446 0.673040 4.104941
v 8.365052 0.667282 4.106145
v 8.370656 0.662564 4.107609
v 8.377044 0.659066 4.109278
v 8.383968 0.656924 4.111088
v 8.391164 0.656219 4.112968
v 8.398355 0.656978 4.114847
v 8.405264 0.659173 4.116652
v 8.411627 0.662719 4.118314
v 8.417197 0.667479 4.119770
v 8.421762 0.673272 4.120963
v 8.425146 0.679874 4.121847
v 8.427219 0.687031 4.122389
v 8.427901 0.694468 4.122567
v 8.427167 0.701901 4.122375
v 8.425043 0.709042 4.121820
v 8.414076 0.721375 4.130938
v 8.418681 0.715618 4.132142
v 8.354084 0.679616 4.115263
v 8.357515 0.673040 4.116159
v 8.362121 0.667282 4.117363
v 8.422112 0.709042 4.133038
v 8.343451 0.641375 4.092458
v 8.445107 0.641375 4.119020
v 8.343451 0.746443 4.092458
v 8.445107 0.746443 4.119020
v 8.284755 0.801647 4.076697
v 8.286922 0.800976 4.077263
v 8.288921 0.799882 4.077785
v 8.290675 0.798405 4.078244
v 8.292117 0.796603 4.078620
v 8.282503 0.801867 4.076108
v 8.280252 0.801630 4.075520
v 8.278090 0.800943 4.074955
v 8.276098 0.799833 4.074435
v 8.274355 0.798343 4.073979
v 8.272926 0.796530 4.073606
v 8.271867 0.794464 4.073329
v 8.271218 0.792224 4.073160
v 8.271005 0.789896 4.073104
v 8.271235 0.787570 4.073164
v 8.271899 0.785335 4.073338
v 8.272973 0.783277 4.073618
v 8.274414 0.781475 4.073995
v 8.276169 0.779998 4.074453
v 8.278168 0.778903 4.074975
v 8.280334 0.778233 4.075542
v 8.282587 0.778012 4.076130
v 8.284838 0.778250 4.076718
v 8.287001 0.778937 4.077283
v 8.288991 0.780047 4.077804
v 8.290735 0.781536 4.078259
v 8.292164 0.783349 4.078632
v 8.293222 0.785416 4.078909
v 8.293872 0.787656 4.079079
v 8.294086 0.789983 4.079134
v 8.293856 0.792310 4.079074
v 8.293191 0.794545 4.078901
v 8.569202 0.801647 4.151020
v 8.571369 0.800976 4.151586
v 8.573369 0.799882 4.152108
v 8.575123 0.798405 4.152566
v 8.576564 0.796603 4.152943
v 8.566950 0.801867 4.150431
v 8.564699 0.801630 4.149843
v 8.562537 0.800943 4.149278
v 8.560546 0.799833 4.148758
v 8.558803 0.798343 4.148302
v 8.557373 0.796530 4.147929
v 8.556314 0.794464 4.147652
v 8.555665 0.792224 4.147482
v 8.555452 0.789896 4.147427
v 8.555682 0.787570 4.147487
v 8.556347 0.785335 4.147661
v 8.557421 0.783277 4.147941
v 8.558862 0.781475 4.148318
v 8.560616 0.779998 4.148776
v 8.562615 0.778903 4.149299
v 8.564782 0.778233 4.149865
v 8.567035 0.778012 4.150453
v 8.569285 0.778250 4.151041
v 8.571447 0.778937 4.151606
v 8.573439 0.780047 4.152127
v 8.575182 0.781536 4.152582
v 8.576612 0.783349 4.152956
v 8.577670 0.785416 4.153232
v 8.578319 0.787656 4.153402
v 8.578532 0.789983 4.153458
v 8.578302 0.792310 4.153398
v 8.577638 0.794545 4.153224
v 8.284755 0.569755 4.076697
v 8.286922 0.569084 4.077263
v 8.288921 0.567990 4.077785
v 8.290675 0.566513 4.078244
v 8.292117 0.564711 4.078620
v 8.282503 0.569976 4.076108
v 8.280252 0.569738 4.075520
v 8.278090 0.569051 4.074955
v 8.276098 0.567941 4.074435
v 8.274355 0.566451 4.073979
v 8.272926 0.564638 4.073606
v 8.271867 0.562572 4.073329
v 8.271218 0.560332 4.073160
v 8.271005 0.558004 4.073104
v 8.271235 0.555678 4.073164
v 8.271899 0.553443 4.073338
v 8.272973 0.551385 4.073618
v 8.274414 0.549583 4.073995
v 8.276169 0.548106 4.074453
v 8.278168 0.547011 4.074975
v 8.280334 0.546341 4.075542
v 8.282587 0.546120 4.076130
v 8.284838 0.546358 4.076718
v 8.287001 0.547045 4.077283
v 8.288991 0.548155 4.077804
v 8.290735 0.549645 4.078259
v 8.292164 0.551457 4.078632
v 8.293222 0.553524 4.078909
v 8.293872 0.555764 4.079079
v 8.294086 0.558092 4.079134
v 8.293856 0.560418 4.079074
v 8.293191 0.562653 4.078901
v 8.569202 0.569755 4.151020
v 8.571369 0.569084 4.151586
v 8.573369 0.567990 4.152108
v 8.575123 0.566513 4.152566
v 8.576564 0.564711 4.152943
v 8.566950 0.569976 4.150431
v 8.564699 0.569738 4.149843
v 8.562537 0.569051 4.149278
v 8.560546 0.567941 4.148758
v 8.558803 0.566451 4.148302
v 8.557373 0.564638 4.147929
v 8.556314 0.562572 4.147652
v 8.555665 0.560332 4.147482
v 8.555452 0.558004 4.147427
v 8.555682 0.555678 4.147487
v 8.556347 0.553443 4.147661
v 8.557421 0.551385 4.147941
v 8.558862 0.549583 4.148318
v 8.560616 0.548106 4.148776
v 8.562615 0.547011 4.149299
v 8.564782 0.546341 4.149865
v 8.567035 0.546120 4.150453
v 8.569285 0.546358 4.151041
v 8.571447 0.547045 4.151606
v 8.573439 0.548155 4.152127
v 8.575182 0.549645 4.152582
v 8.576612 0.551457 4.152956
v 8.577670 0.553524 4.153232
v 8.578319 0.555764 4.153402
v 8.578532 0.558092 4.153458
v 8.578302 0.560418 4.153398
v 8.577638 0.562653 4.153224
vt 0.243505 0.508813
vt 0.243505 0.287112
vt 0.021804 0.287112
vt 0.021804 0.508813
vt 0.535443 0.707997
vt 0.710202 0.707997
vt 0.710202 0.504390
vt 0.535443 0.504390
vt 0.772899 0.697300
vt 0.947659 0.697300
vt 0.947659 0.499385
vt 0.772899 0.499385
vt 0.270134 0.969675
vt 0.444894 0.969675
vt 0.444894 0.787457
vt 0.270134 0.787457
vt 0.253322 0.767437
vt 0.253322 0.551945
vt 0.236820 0.535443
vt 0.021328 0.535443
vt 0.004826 0.551945
vt 0.004826 0.767437
vt 0.021328 0.783939
vt 0.236820 0.783939
vt 0.273715 0.505709
vt 0.270134 0.508813
vt 0.287112 0.525791
vt 0.290217 0.522211
vt 0.508813 0.525791
vt 0.505708 0.522211
vt 0.505708 0.273715
vt 0.508813 0.270134
vt 0.287112 0.270134
vt 0.290217 0.273715
vt 0.522211 0.290217
vt 0.525791 0.287112
vt 0.947659 0.750320
vt 0.947659 0.728635
vt 0.772899 0.728635
vt 0.772899 0.750320
vt 0.270134 0.287112
vt 0.273715 0.290217
vt 0.270134 0.764693
vt 0.444894 0.764693
vt 0.710202 0.728994
vt 0.535443 0.728994
vt 0.772899 0.718984
vt 0.947659 0.718984
vt 0.525791 0.508813
vt 0.522211 0.505709
vt 0.772899 0.948235
vt 0.947659 0.948235
vt 0.497939 0.771021
vt 0.471523 0.771021
vt 0.471523 0.794441
vt 0.497939 0.794441
vt 0.836984 0.004826
vt 0.810569 0.004826
vt 0.810569 0.027135
vt 0.836984 0.027135
vt 0.810569 0.230753
vt 0.836984 0.230753
vt 0.899681 0.230753
vt 0.926097 0.230753
vt 0.926097 0.208444
vt 0.899681 0.208444
vt 0.926097 0.004826
vt 0.899681 0.004826
vt 0.471523 0.981910
vt 0.497939 0.981910
vt 0.719854 0.720337
vt 0.746270 0.720337
vt 0.746270 0.510862
vt 0.719854 0.510862
vt 0.719854 0.741939
vt 0.746270 0.741939
vt 0.793591 0.020419
vt 0.454545 0.785378
vt 0.763248 0.725897
vt 0.943075 0.215160
vt 0.243505 0.270134
vt 0.021804 0.270134
vt 0.021804 0.525791
vt 0.243505 0.525791
vt 0.260483 0.287112
vt 0.260483 0.508813
vt 0.004826 0.508813
vt 0.004826 0.287112
vt 0.089413 0.947889
vt 0.094085 0.946522
vt 0.098487 0.944048
vt 0.102448 0.940561
vt 0.105816 0.936196
vt 0.108463 0.931119
vt 0.110286 0.925527
vt 0.111215 0.919634
vt 0.111215 0.913667
vt 0.110286 0.907855
vt 0.108463 0.902420
vt 0.105816 0.897573
vt 0.102448 0.893500
vt 0.098487 0.890356
vt 0.094085 0.888263
vt 0.089413 0.887301
vt 0.084649 0.887508
vt 0.079977 0.888874
vt 0.075575 0.891348
vt 0.071614 0.894835
vt 0.068246 0.899201
vt 0.065599 0.904277
vt 0.063776 0.909869
vt 0.062846 0.915762
vt 0.062846 0.921729
vt 0.063776 0.927542
vt 0.065599 0.932976
vt 0.068246 0.937823
vt 0.071614 0.941896
vt 0.075575 0.945040
vt 0.079977 0.947133
vt 0.084649 0.948095
vt 0.179708 0.924623
vt 0.184472 0.924829
vt 0.189145 0.923867
vt 0.193546 0.921775
vt 0.197507 0.918631
vt 0.200876 0.914557
vt 0.203522 0.909710
vt 0.205345 0.904276
vt 0.206275 0.898464
vt 0.206275 0.892496
vt 0.205345 0.886603
vt 0.203522 0.881011
vt 0.200876 0.875935
vt 0.197507 0.871570
vt 0.193546 0.868083
vt 0.189145 0.865609
vt 0.184472 0.864242
vt 0.179708 0.864036
vt 0.175036 0.864997
vt 0.170635 0.867090
vt 0.166673 0.870234
vt 0.163305 0.874308
vt 0.160658 0.879155
vt 0.158835 0.884589
vt 0.157906 0.890401
vt 0.157906 0.896369
vt 0.158835 0.902262
vt 0.160658 0.907854
vt 0.163305 0.912930
vt 0.166673 0.917295
vt 0.170635 0.920782
vt 0.175036 0.923256
vt 0.974259 0.233011
vt 0.952726 0.233011
vt 0.952726 0.237881
vt 0.974259 0.237881
vt 0.957310 0.274260
vt 0.978843 0.274260
vt 0.978843 0.270134
vt 0.957310 0.270134
vt 0.974259 0.228043
vt 0.952726 0.228043
vt 0.957310 0.278846
vt 0.978843 0.278846
vt 0.974259 0.223170
vt 0.952726 0.223170
vt 0.957310 0.283716
vt 0.978843 0.283716
vt 0.974259 0.218578
vt 0.952726 0.218578
vt 0.957310 0.288683
vt 0.978843 0.288683
vt 0.974259 0.214444
vt 0.952726 0.214444
vt 0.957310 0.293556
vt 0.978843 0.293556
vt 0.995174 0.155373
vt 0.973642 0.155373
vt 0.973642 0.159486
vt 0.995174 0.159486
vt 0.957310 0.298148
vt 0.978843 0.298148
vt 0.995174 0.150581
vt 0.973642 0.150581
vt 0.974259 0.246592
vt 0.952726 0.246592
vt 0.952726 0.250099
vt 0.974259 0.250099
vt 0.952726 0.009087
vt 0.974259 0.009087
vt 0.974259 0.004826
vt 0.952726 0.004826
vt 0.995174 0.145295
vt 0.973642 0.145295
vt 0.952726 0.051008
vt 0.974259 0.051008
vt 0.974259 0.046988
vt 0.952726 0.046988
vt 0.952726 0.014050
vt 0.974259 0.014050
vt 0.995174 0.139717
vt 0.973642 0.139717
vt 0.974259 0.042213
vt 0.952726 0.042213
vt 0.952726 0.019526
vt 0.974259 0.019526
vt 0.995174 0.134064
vt 0.973642 0.134064
vt 0.974259 0.036868
vt 0.952726 0.036868
vt 0.952726 0.025302
vt 0.974259 0.025302
vt 0.995174 0.128551
vt 0.973642 0.128551
vt 0.952726 0.031158
vt 0.974259 0.031158
vt 0.995174 0.123390
vt 0.973642 0.123390
vt 0.974259 0.242467
vt 0.952726 0.242467
vt 0.995174 0.118780
vt 0.973642 0.118780
vt 0.995174 0.114899
vt 0.973642 0.114899
vt 0.952726 0.134064
vt 0.952726 0.139717
vt 0.518539 0.601485
vt 0.513065 0.599810
vt 0.507591 0.599147
vt 0.507591 0.650861
vt 0.513065 0.652537
vt 0.518539 0.653200
vt 0.236842 0.911833
vt 0.215926 0.911833
vt 0.215926 0.961303
vt 0.236842 0.961303
vt 0.995174 0.036868
vt 0.995174 0.031158
vt 0.952726 0.128551
vt 0.995174 0.042213
vt 0.215926 0.902182
vt 0.236842 0.902182
vt 0.236842 0.852712
vt 0.215926 0.852712
vt 0.514414 0.825207
vt 0.515905 0.825271
vt 0.517368 0.824970
vt 0.518745 0.824315
vt 0.519985 0.823331
vt 0.521039 0.822056
vt 0.521868 0.820539
vt 0.522438 0.818839
vt 0.522729 0.817019
vt 0.522729 0.815152
vt 0.522438 0.813307
vt 0.521868 0.811557
vt 0.521039 0.809968
vt 0.519985 0.808602
vt 0.518745 0.807511
vt 0.517368 0.806736
vt 0.515905 0.806309
vt 0.514414 0.806244
vt 0.512952 0.806545
vt 0.511574 0.807200
vt 0.510335 0.808184
vt 0.509280 0.809459
vt 0.508452 0.810976
vt 0.507881 0.812677
vt 0.507591 0.814496
vt 0.507591 0.816364
vt 0.507881 0.818208
vt 0.508452 0.819958
vt 0.509280 0.821547
vt 0.510335 0.822913
vt 0.511574 0.824005
vt 0.512952 0.824779
vt 0.514414 0.739171
vt 0.515905 0.739235
vt 0.517368 0.738934
vt 0.518745 0.738279
vt 0.519985 0.737295
vt 0.521039 0.736020
vt 0.521868 0.734503
vt 0.522438 0.732803
vt 0.522729 0.730983
vt 0.522729 0.729116
vt 0.522438 0.727271
vt 0.521868 0.725521
vt 0.521039 0.723933
vt 0.519985 0.722566
vt 0.518745 0.721475
vt 0.517368 0.720701
vt 0.515905 0.720273
vt 0.514414 0.720208
vt 0.512952 0.720509
vt 0.511574 0.721164
vt 0.510335 0.722148
vt 0.509280 0.723423
vt 0.508452 0.724940
vt 0.507881 0.726641
vt 0.507591 0.728460
vt 0.507591 0.730328
vt 0.507881 0.732172
vt 0.508452 0.733922
vt 0.509280 0.735511
vt 0.510335 0.736877
vt 0.511574 0.737969
vt 0.512952 0.738743
vt 0.825204 0.259367
vt 0.826695 0.259432
vt 0.828158 0.259131
vt 0.829535 0.258475
vt 0.830775 0.257492
vt 0.831829 0.256217
vt 0.832658 0.254700
vt 0.833228 0.252999
vt 0.833519 0.251180
vt 0.833519 0.249312
vt 0.833228 0.247468
vt 0.832658 0.245717
vt 0.831829 0.244129
vt 0.830775 0.242762
vt 0.829535 0.241671
vt 0.828158 0.240897
vt 0.826695 0.240469
vt 0.825204 0.240404
vt 0.823742 0.240705
vt 0.822364 0.241360
vt 0.821125 0.242344
vt 0.820070 0.243619
vt 0.819242 0.245136
vt 0.818671 0.246837
vt 0.818381 0.248656
vt 0.818381 0.250524
vt 0.818671 0.252368
vt 0.819242 0.254119
vt 0.820070 0.255707
vt 0.821125 0.257074
vt 0.822364 0.258165
vt 0.823742 0.258939
vt 0.514414 0.767849
vt 0.515905 0.767914
vt 0.517368 0.767613
vt 0.518745 0.766958
vt 0.519985 0.765974
vt 0.521039 0.764699
vt 0.521868 0.763182
vt 0.522438 0.761481
vt 0.522729 0.759662
vt 0.522729 0.757794
vt 0.522438 0.755950
vt 0.521868 0.754200
vt 0.521039 0.752611
vt 0.519985 0.751245
vt 0.518745 0.750154
vt 0.517368 0.749379
vt 0.515905 0.748951
vt 0.514414 0.748887
vt 0.512952 0.749188
vt 0.511574 0.749843
vt 0.510335 0.750827
vt 0.509280 0.752102
vt 0.508452 0.753619
vt 0.507881 0.755320
vt 0.507590 0.757139
vt 0.507590 0.759006
vt 0.507881 0.760851
vt 0.508452 0.762601
vt 0.509280 0.764190
vt 0.510335 0.765556
vt 0.511574 0.766647
vt 0.512952 0.767422
vt 0.081366 0.793591
vt 0.081366 0.877650
vt 0.148254 0.877650
vt 0.148254 0.793591
vn -0.2528 0.0000 0.9675
vn 0.9675 0.0000 0.2528
vn 0.0000 -1.0000 0.0000
vn -0.9675 0.0000 -0.2528
vn 0.2528 0.0000 -0.9675
vn 0.2609 0.0105 -0.9653
vn 0.2678 0.0000 -0.9635
vn 0.2377 0.0000 -0.9713
vn 0.2447 -0.0105 -0.9695
vn -0.6024 0.7825 -0.1574
vn 0.2447 0.0105 -0.9695
vn -0.6024 -0.7825 -0.1574
vn 0.6024 0.7825 0.1574
vn 0.6024 -0.7825 0.1574
vn 0.2609 -0.0105 -0.9653
vn 0.2528 -0.0197 -0.9673
vn 0.2528 0.0197 -0.9673
vn 0.0000 1.0000 0.0000
vn -0.9675 0.0000 -0.2527
vn -0.5170 0.3858 0.7641
vn -0.5170 -0.3858 0.7641
vn 0.0772 0.3858 0.9193
vn 0.0772 -0.3858 0.9193
vn -0.5604 0.0000 0.8282
vn 0.0836 0.0000 0.9965
vn -0.2311 0.4054 0.8844
vn -0.2311 -0.4054 0.8844
vn -0.2843 0.9559 -0.0743
vn -0.0913 -0.9955 -0.0239
vn -0.4592 0.8802 -0.1200
vn 0.0984 -0.9948 0.0257
vn -0.6165 0.7707 -0.1611
vn 0.2843 -0.9559 0.0743
vn -0.7502 0.6315 -0.1960
vn 0.4592 -0.8802 0.1200
vn -0.8550 0.4681 -0.2234
vn 0.6165 -0.7707 0.1611
vn -0.9269 0.2868 -0.2422
vn 0.7502 -0.6315 0.1960
vn -0.9632 0.0943 -0.2517
vn 0.2775 0.9580 0.0725
vn 0.8549 -0.4682 0.2234
vn -0.9625 -0.1016 -0.2515
vn 0.4529 0.8837 0.1183
vn 0.9269 -0.2868 0.2422
vn -0.9248 -0.2938 -0.2416
vn 0.6111 0.7753 0.1597
vn 0.9632 -0.0944 0.2517
vn -0.8516 -0.4746 -0.2225
vn 0.7457 0.6372 0.1948
vn 0.9625 0.1016 0.2515
vn -0.7456 -0.6373 -0.1948
vn 0.9248 0.2939 0.2416
vn -0.6110 -0.7753 -0.1597
vn 0.0913 0.9955 0.0239
vn 0.8516 0.4746 0.2225
vn -0.4530 -0.8836 -0.1184
vn -0.0984 0.9948 -0.0257
vn -0.2775 -0.9580 -0.0725
vn -0.8516 -0.4745 -0.2225
vn -0.5405 0.8294 -0.1412
vn 0.8515 0.4747 0.2225
vn -0.7457 -0.6372 -0.1948
vn 0.7456 0.6372 0.1948
vn 0.5405 -0.8294 0.1412
usemtl blanc
s off
f 33/1/1 40/2/1 37/3/1 23/4/1
f 25/5/2 20/6/2 24/7/2 28/8/2
f 27/9/3 22/10/3 13/11/3 18/12/3
f 11/13/4 16/14/4 17/15/4 14/16/4
f 15/17/5 26/18/5 25/19/5 28/20/5 27/21/5 18/22/5 17/23/5 16/24/5
f 13/25/6 3/26/6 5/27/6 14/28/6
f 14/28/7 5/27/7 8/29/7 11/30/7
f 20/31/8 29/32/8 30/33/8 24/34/8
f 19/35/9 1/36/9 29/32/9 20/31/9
f 15/37/10 16/38/10 11/39/10 9/40/10
f 24/34/11 30/33/11 31/41/11 22/42/11
f 13/43/12 14/16/12 17/15/12 18/44/12
f 19/45/13 20/6/13 25/5/13 26/46/13
f 27/9/14 28/47/14 24/48/14 22/10/14
f 11/30/15 8/29/15 7/49/15 9/50/15
f 9/50/16 7/49/16 1/36/16 19/35/16
f 22/42/17 31/41/17 3/26/17 13/25/17
f 15/37/18 9/40/18 19/51/18 26/52/18
f 3/53/12 35/54/12 36/55/12 5/56/12
f 8/57/10 38/58/10 39/59/10 7/60/10
f 7/60/18 39/59/18 34/61/18 1/62/18
f 30/63/14 21/64/14 12/65/14 31/66/14
f 31/66/3 12/65/3 35/67/3 3/68/3
f 5/56/19 36/55/19 38/69/19 8/70/19
f 29/71/2 10/72/2 21/73/2 30/74/2
f 1/75/13 34/76/13 10/72/13 29/71/13
f 39/59/20 38/58/20 40/77/20
f 37/78/21 36/55/21 35/54/21
f 34/76/22 33/79/22 10/72/22
f 12/65/23 21/64/23 23/80/23
f 40/2/24 38/81/24 36/82/24 37/3/24
f 23/4/25 21/83/25 10/84/25 33/1/25
f 39/85/26 40/2/26 33/1/26 34/86/26
f 12/87/27 23/4/27 37/3/27 35/88/27
usemtl noir_simple
f 41/89/5 2/90/5 4/91/5 6/92/5 32/93/5 68/94/5 67/95/5 66/96/5 65/97/5 64/98/5 63/99/5 62/100/5 61/101/5 60/102/5 59/103/5 58/104/5 57/105/5 56/106/5 55/107/5 54/108/5 53/109/5 52/110/5 51/111/5 50/112/5 49/113/5 48/114/5 47/115/5 46/116/5 45/117/5 44/118/5 43/119/5 42/120/5
f 69/121/1 74/122/1 75/123/1 76/124/1 77/125/1 78/126/1 79/127/1 80/128/1 81/129/1 82/130/1 83/131/1 84/132/1 85/133/1 86/134/1 87/135/1 88/136/1 89/137/1 90/138/1 91/139/1 92/140/1 93/141/1 94/142/1 95/143/1 96/144/1 97/145/1 98/146/1 99/147/1 100/148/1 73/149/1 72/150/1 71/151/1 70/152/1
f 44/153/28 76/154/28 75/155/28 43/156/28
f 58/157/29 90/158/29 89/159/29 57/160/29
f 45/161/30 77/162/30 76/154/30 44/153/30
f 59/163/31 91/164/31 90/158/31 58/157/31
f 46/165/32 78/166/32 77/162/32 45/161/32
f 60/167/33 92/168/33 91/164/33 59/163/33
f 47/169/34 79/170/34 78/166/34 46/165/34
f 61/171/35 93/172/35 92/168/35 60/167/35
f 48/173/36 80/174/36 79/170/36 47/169/36
f 62/175/37 94/176/37 93/172/37 61/171/37
f 49/177/38 81/178/38 80/179/38 48/180/38
f 63/181/39 95/182/39 94/176/39 62/175/39
f 50/183/40 82/184/40 81/178/40 49/177/40
f 41/185/41 69/186/41 70/187/41 2/188/41
f 64/189/42 96/190/42 95/191/42 63/192/42
f 51/193/43 83/194/43 82/184/43 50/183/43
f 2/195/44 70/196/44 71/197/44 4/198/44
f 65/199/45 97/200/45 96/190/45 64/189/45
f 52/201/46 84/202/46 83/194/46 51/193/46
f 4/198/47 71/197/47 72/203/47 6/204/47
f 66/205/48 98/206/48 97/200/48 65/199/48
f 53/207/49 85/208/49 84/202/49 52/201/49
f 6/204/50 72/203/50 73/209/50 32/210/50
f 67/211/51 99/212/51 98/206/51 66/205/51
f 54/213/52 86/214/52 85/208/52 53/207/52
f 68/215/53 100/216/53 99/212/53 67/211/53
f 55/217/54 87/218/54 86/214/54 54/213/54
f 42/219/55 74/220/55 69/186/55 41/185/55
f 32/210/56 73/209/56 100/216/56 68/215/56
f 56/221/57 88/222/57 87/218/57 55/217/57
f 43/156/58 75/155/58 74/220/58 42/219/58
f 57/223/59 89/224/59 88/222/59 56/221/59
f 85/208/60 104/225/60 103/226/60 84/202/60
f 103/227/1 104/228/1 105/229/1 106/230/1 102/231/1 101/232/1
f 84/233/61 103/234/61 101/235/61 72/236/61
f 73/209/62 102/237/62 106/238/62 100/216/62
f 86/214/63 105/239/63 104/225/63 85/208/63
f 72/203/64 101/240/64 102/237/64 73/209/64
f 100/241/65 106/242/65 105/243/65 86/244/65
f 111/245/1 116/246/1 117/247/1 118/248/1 119/249/1 120/250/1 121/251/1 122/252/1 123/253/1 124/254/1 125/255/1 126/256/1 127/257/1 128/258/1 129/259/1 130/260/1 131/261/1 132/262/1 133/263/1 134/264/1 135/265/1 136/266/1 137/267/1 138/268/1 139/269/1 140/270/1 141/271/1 142/272/1 115/273/1 114/274/1 113/275/1 112/276/1
f 143/277/1 148/278/1 149/279/1 150/280/1 151/281/1 152/282/1 153/283/1 154/284/1 155/285/1 156/286/1 157/287/1 158/288/1 159/289/1 160/290/1 161/291/1 162/292/1 163/293/1 164/294/1 165/295/1 166/296/1 167/297/1 168/298/1 169/299/1 170/300/1 171/301/1 172/302/1 173/303/1 174/304/1 147/305/1 146/306/1 145/307/1 144/308/1
f 175/309/1 180/310/1 181/311/1 182/312/1 183/313/1 184/314/1 185/315/1 186/316/1 187/317/1 188/318/1 189/319/1 190/320/1 191/321/1 192/322/1 193/323/1 194/324/1 195/325/1 196/326/1 197/327/1 198/328/1 199/329/1 200/330/1 201/331/1 202/332/1 203/333/1 204/334/1 205/335/1 206/336/1 179/337/1 178/338/1 177/339/1 176/340/1
f 207/341/1 212/342/1 213/343/1 214/344/1 215/345/1 216/346/1 217/347/1 218/348/1 219/349/1 220/350/1 221/351/1 222/352/1 223/353/1 224/354/1 225/355/1 226/356/1 227/357/1 228/358/1 229/359/1 230/360/1 231/361/1 232/362/1 233/363/1 234/364/1 235/365/1 236/366/1 237/367/1 238/368/1 211/369/1 210/370/1 209/371/1 208/372/1
usemtl bleu_
f 107/373/5 109/374/5 110/375/5 108/376/5
