# Blender v3.6.1 OBJ File: 'Water tank.blend'
# www.blender.org
mtllib controlbox2.mtl
o Cube.004_Cube.006
v -9.221766 0.833436 3.547348
v -9.256183 0.729591 3.739162
v -9.320227 0.513882 3.881387
v -9.254316 0.726094 3.732830
v -9.327766 0.535104 3.906967
v -9.252679 0.721375 3.727274
v -9.320227 0.833436 3.881387
v -9.327766 0.812214 3.906967
v -9.318763 0.828960 3.876733
v -9.200179 0.812214 3.525908
v -9.326092 0.808333 3.901598
v -9.207720 0.513882 3.551489
v -9.318763 0.518357 3.876733
v -9.326092 0.538984 3.901598
v -9.411689 0.828960 3.849343
v -9.419018 0.808333 3.874207
v -9.419018 0.538984 3.874207
v -9.411689 0.518357 3.849343
v -9.223061 0.828960 3.552051
v -9.215732 0.808333 3.527187
v -9.200179 0.535104 3.525908
v -9.223061 0.518357 3.552051
v -9.198692 0.535104 3.554150
v -9.215732 0.538984 3.527187
v -9.308658 0.808333 3.499796
v -9.315987 0.828960 3.524661
v -9.315987 0.518357 3.524661
v -9.308658 0.538984 3.499796
v -9.214226 0.812214 3.521768
v -9.214226 0.535104 3.521768
v -9.221766 0.513882 3.547348
v -9.251333 0.715618 3.722708
v -9.198692 0.812214 3.554150
v -9.207720 0.833436 3.551489
v -9.306180 0.513882 3.885527
v -9.313721 0.535104 3.911108
v -9.297153 0.535104 3.888188
v -9.313721 0.812214 3.911108
v -9.306180 0.833436 3.885527
v -9.297153 0.812214 3.888188
v -9.258206 0.731734 3.746027
v -9.260309 0.732439 3.753162
v -9.262411 0.731680 3.760291
v -9.264430 0.729485 3.767141
v -9.266289 0.725939 3.773448
v -9.267917 0.721178 3.778971
v -9.269251 0.715386 3.783497
v -9.270240 0.708784 3.786852
v -9.270845 0.701627 3.788907
v -9.271045 0.694189 3.789583
v -9.270830 0.686757 3.788855
v -9.270209 0.679616 3.786749
v -9.269207 0.673040 3.783348
v -9.267861 0.667282 3.778782
v -9.266224 0.662564 3.773226
v -9.264357 0.659066 3.766893
v -9.262334 0.656924 3.760028
v -9.260231 0.656219 3.752894
v -9.258129 0.656978 3.745765
v -9.256110 0.659173 3.738915
v -9.254251 0.662719 3.732608
v -9.252624 0.667479 3.727085
v -9.251289 0.673272 3.722559
v -9.250300 0.679874 3.719204
v -9.249695 0.687031 3.717149
v -9.249496 0.694468 3.716473
v -9.249710 0.701901 3.717201
v -9.250330 0.709042 3.719306
v -9.246757 0.731734 3.749403
v -9.244733 0.729591 3.742537
v -9.242867 0.726094 3.736205
v -9.241229 0.721375 3.730649
v -9.239883 0.715618 3.726083
v -9.248859 0.732439 3.756536
v -9.250961 0.731680 3.763666
v -9.252980 0.729485 3.770515
v -9.254839 0.725939 3.776823
v -9.256467 0.721178 3.782346
v -9.257801 0.715386 3.786872
v -9.258790 0.708784 3.790227
v -9.259396 0.701627 3.792282
v -9.259595 0.694189 3.792958
v -9.259380 0.686757 3.792230
v -9.258759 0.679616 3.790124
v -9.257757 0.673040 3.786723
v -9.256412 0.667282 3.782157
v -9.254774 0.662564 3.776601
v -9.252907 0.659066 3.770268
v -9.250884 0.656924 3.763403
v -9.248781 0.656219 3.756269
v -9.246679 0.656978 3.749140
v -9.244660 0.659173 3.742290
v -9.242802 0.662719 3.735983
v -9.241174 0.667479 3.730460
v -9.239840 0.673272 3.725934
v -9.238851 0.679874 3.722579
v -9.238245 0.687031 3.720524
v -9.238046 0.694468 3.719848
v -9.238260 0.701901 3.720576
v -9.238880 0.709042 3.722681
v -9.230107 0.721375 3.733927
v -9.228762 0.715618 3.729361
v -9.247639 0.679616 3.793402
v -9.246636 0.673040 3.790001
v -9.245290 0.667282 3.785435
v -9.227759 0.709042 3.725960
v -9.270762 0.641375 3.803322
v -9.241056 0.641375 3.702541
v -9.270762 0.746443 3.803322
v -9.241056 0.746443 3.702541
v -9.288340 0.801647 3.861501
v -9.287706 0.800976 3.859352
v -9.287122 0.799882 3.857370
v -9.286610 0.798405 3.855631
v -9.286188 0.796603 3.854202
v -9.288998 0.801867 3.863733
v -9.289656 0.801630 3.865964
v -9.290287 0.800943 3.868109
v -9.290870 0.799833 3.870083
v -9.291379 0.798343 3.871811
v -9.291797 0.796530 3.873228
v -9.292106 0.794464 3.874278
v -9.292295 0.792224 3.874921
v -9.292357 0.789896 3.875133
v -9.292291 0.787570 3.874904
v -9.292096 0.785335 3.874246
v -9.291782 0.783277 3.873181
v -9.291361 0.781475 3.871752
v -9.290849 0.779998 3.870013
v -9.290264 0.778903 3.868031
v -9.289631 0.778233 3.865882
v -9.288973 0.778012 3.863650
v -9.288316 0.778250 3.861418
v -9.287683 0.778937 3.859274
v -9.287102 0.780047 3.857300
v -9.286592 0.781536 3.855572
v -9.286175 0.783349 3.854155
v -9.285865 0.785416 3.853105
v -9.285675 0.787656 3.852462
v -9.285613 0.789983 3.852250
v -9.285681 0.792310 3.852479
v -9.285874 0.794545 3.853137
v -9.205217 0.801647 3.579499
v -9.204584 0.800976 3.577350
v -9.204000 0.799882 3.575368
v -9.203487 0.798405 3.573629
v -9.203066 0.796603 3.572200
v -9.205875 0.801867 3.581732
v -9.206533 0.801630 3.583963
v -9.207165 0.800943 3.586107
v -9.207747 0.799833 3.588081
v -9.208257 0.798343 3.589809
v -9.208674 0.796530 3.591226
v -9.208983 0.794464 3.592276
v -9.209173 0.792224 3.592919
v -9.209235 0.789896 3.593131
v -9.209168 0.787570 3.592903
v -9.208974 0.785335 3.592244
v -9.208660 0.783277 3.591180
v -9.208239 0.781475 3.589750
v -9.207726 0.779998 3.588012
v -9.207142 0.778903 3.586030
v -9.206509 0.778233 3.583881
v -9.205851 0.778012 3.581648
v -9.205194 0.778250 3.579417
v -9.204561 0.778937 3.577273
v -9.203979 0.780047 3.575299
v -9.203470 0.781536 3.573570
v -9.203053 0.783349 3.572154
v -9.202743 0.785416 3.571104
v -9.202553 0.787656 3.570461
v -9.202491 0.789983 3.570249
v -9.202559 0.792310 3.570477
v -9.202752 0.794545 3.571136
v -9.288340 0.569755 3.861501
v -9.287706 0.569084 3.859352
v -9.287122 0.567990 3.857370
v -9.286610 0.566513 3.855631
v -9.286188 0.564711 3.854202
v -9.288998 0.569976 3.863733
v -9.289656 0.569738 3.865964
v -9.290287 0.569051 3.868109
v -9.290870 0.567941 3.870083
v -9.291379 0.566451 3.871811
v -9.291797 0.564638 3.873228
v -9.292106 0.562572 3.874278
v -9.292295 0.560332 3.874921
v -9.292357 0.558004 3.875133
v -9.292291 0.555678 3.874904
v -9.292096 0.553443 3.874246
v -9.291782 0.551385 3.873181
v -9.291361 0.549583 3.871752
v -9.290849 0.548106 3.870013
v -9.290264 0.547011 3.868031
v -9.289631 0.546341 3.865882
v -9.288973 0.546120 3.863650
v -9.288316 0.546358 3.861418
v -9.287683 0.547045 3.859274
v -9.287102 0.548155 3.857300
v -9.286592 0.549645 3.855572
v -9.286175 0.551457 3.854155
v -9.285865 0.553524 3.853105
v -9.285675 0.555764 3.852462
v -9.285613 0.558092 3.852250
v -9.285681 0.560418 3.852479
v -9.285874 0.562653 3.853137
v -9.205217 0.569755 3.579499
v -9.204584 0.569084 3.577350
v -9.204000 0.567990 3.575368
v -9.203487 0.566513 3.573629
v -9.203066 0.564711 3.572200
v -9.205875 0.569976 3.581732
v -9.206533 0.569738 3.583963
v -9.207165 0.569051 3.586107
v -9.207747 0.567941 3.588081
v -9.208257 0.566451 3.589809
v -9.208674 0.564638 3.591226
v -9.208983 0.562572 3.592276
v -9.209173 0.560332 3.592919
v -9.209235 0.558004 3.593131
v -9.209168 0.555678 3.592903
v -9.208974 0.553443 3.592244
v -9.208660 0.551385 3.591180
v -9.208239 0.549583 3.589750
v -9.207726 0.548106 3.588012
v -9.207142 0.547011 3.586030
v -9.206509 0.546341 3.583881
v -9.205851 0.546120 3.581648
v -9.205194 0.546358 3.579417
v -9.204561 0.547045 3.577273
v -9.203979 0.548155 3.575299
v -9.203470 0.549645 3.573570
v -9.203053 0.551457 3.572154
v -9.202743 0.553524 3.571104
v -9.202553 0.555764 3.570461
v -9.202491 0.558092 3.570249
v -9.202559 0.560418 3.570477
v -9.202752 0.562653 3.571136
vt 0.243505 0.243505
vt 0.243505 0.021804
vt 0.021804 0.021804
vt 0.021804 0.243505
vt 0.535443 0.473741
vt 0.710202 0.473741
vt 0.710202 0.270134
vt 0.535443 0.270134
vt 0.270134 0.733358
vt 0.444894 0.733358
vt 0.444894 0.535443
vt 0.270134 0.535443
vt 0.535443 0.943627
vt 0.710202 0.943627
vt 0.710202 0.761409
vt 0.535443 0.761409
vt 0.783939 0.236820
vt 0.783939 0.021328
vt 0.767437 0.004826
vt 0.551945 0.004826
vt 0.535443 0.021328
vt 0.535443 0.236820
vt 0.551945 0.253322
vt 0.767437 0.253322
vt 0.273715 0.240400
vt 0.270134 0.243505
vt 0.287112 0.260483
vt 0.290217 0.256902
vt 0.508813 0.260483
vt 0.505708 0.256902
vt 0.505708 0.008406
vt 0.508813 0.004826
vt 0.287112 0.004826
vt 0.290217 0.008406
vt 0.522211 0.024909
vt 0.525791 0.021804
vt 0.947659 0.291819
vt 0.947659 0.270134
vt 0.772899 0.270134
vt 0.772899 0.291819
vt 0.270134 0.021804
vt 0.273715 0.024909
vt 0.535443 0.738645
vt 0.710202 0.738645
vt 0.710202 0.494738
vt 0.535443 0.494738
vt 0.270134 0.755042
vt 0.444894 0.755042
vt 0.525791 0.243505
vt 0.522211 0.240400
vt 0.772899 0.489733
vt 0.947659 0.489733
vt 0.763248 0.751590
vt 0.736832 0.751590
vt 0.736832 0.775010
vt 0.763248 0.775010
vt 0.497939 0.535443
vt 0.471523 0.535443
vt 0.471523 0.557752
vt 0.497939 0.557752
vt 0.471523 0.761370
vt 0.497939 0.761370
vt 0.846636 0.230753
vt 0.873051 0.230753
vt 0.873051 0.208444
vt 0.846636 0.208444
vt 0.873051 0.004826
vt 0.846636 0.004826
vt 0.736832 0.962478
vt 0.763248 0.962478
vt 0.719854 0.479609
vt 0.746270 0.479609
vt 0.746270 0.270134
vt 0.719854 0.270134
vt 0.719854 0.501211
vt 0.746270 0.501211
vt 0.454545 0.551036
vt 0.719854 0.765947
vt 0.763248 0.485169
vt 0.890029 0.215160
vt 0.243505 0.004826
vt 0.021804 0.004826
vt 0.021804 0.260483
vt 0.243505 0.260483
vt 0.260483 0.021804
vt 0.260483 0.243505
vt 0.004826 0.243505
vt 0.004826 0.021804
vt 0.031392 0.947889
vt 0.036065 0.946522
vt 0.040466 0.944048
vt 0.044427 0.940561
vt 0.047796 0.936196
vt 0.050442 0.931119
vt 0.052265 0.925527
vt 0.053195 0.919634
vt 0.053195 0.913667
vt 0.052265 0.907855
vt 0.050442 0.902420
vt 0.047796 0.897573
vt 0.044427 0.893500
vt 0.040466 0.890356
vt 0.036065 0.888263
vt 0.031392 0.887301
vt 0.026628 0.887508
vt 0.021956 0.888874
vt 0.017555 0.891348
vt 0.013594 0.894835
vt 0.010225 0.899201
vt 0.007578 0.904277
vt 0.005755 0.909869
vt 0.004826 0.915762
vt 0.004826 0.921729
vt 0.005755 0.927542
vt 0.007578 0.932976
vt 0.010225 0.937823
vt 0.013594 0.941896
vt 0.017555 0.945040
vt 0.021956 0.947133
vt 0.026628 0.948095
vt 0.179708 0.854178
vt 0.184472 0.854384
vt 0.189145 0.853422
vt 0.193546 0.851329
vt 0.197507 0.848186
vt 0.200876 0.844112
vt 0.203522 0.839265
vt 0.205345 0.833831
vt 0.206275 0.828019
vt 0.206275 0.822051
vt 0.205345 0.816158
vt 0.203522 0.810566
vt 0.200876 0.805490
vt 0.197507 0.801125
vt 0.193546 0.797638
vt 0.189145 0.795163
vt 0.184472 0.793797
vt 0.179708 0.793591
vt 0.175036 0.794552
vt 0.170635 0.796645
vt 0.166673 0.799789
vt 0.163305 0.803863
vt 0.160658 0.808710
vt 0.158835 0.814144
vt 0.157906 0.819956
vt 0.157906 0.825924
vt 0.158835 0.831817
vt 0.160658 0.837409
vt 0.163305 0.842485
vt 0.166673 0.846850
vt 0.170635 0.850337
vt 0.175036 0.852811
vt 0.974259 0.187704
vt 0.952726 0.187704
vt 0.952726 0.192574
vt 0.974259 0.192574
vt 0.120867 0.950548
vt 0.142400 0.950548
vt 0.142400 0.946423
vt 0.120867 0.946423
vt 0.974259 0.182737
vt 0.952726 0.182737
vt 0.120867 0.955134
vt 0.142400 0.955134
vt 0.974259 0.177864
vt 0.952726 0.177864
vt 0.120867 0.960004
vt 0.142400 0.960004
vt 0.974259 0.173272
vt 0.952726 0.173272
vt 0.120867 0.964971
vt 0.142400 0.964971
vt 0.974259 0.169138
vt 0.952726 0.169138
vt 0.120867 0.969844
vt 0.142400 0.969844
vt 0.995174 0.101133
vt 0.973642 0.101133
vt 0.973642 0.105247
vt 0.995174 0.105247
vt 0.120867 0.974436
vt 0.142400 0.974436
vt 0.995174 0.096341
vt 0.973642 0.096341
vt 0.974259 0.201286
vt 0.952726 0.201286
vt 0.952726 0.204793
vt 0.974259 0.204793
vt 0.157906 0.938742
vt 0.179438 0.938742
vt 0.179438 0.934481
vt 0.157906 0.934481
vt 0.995174 0.091055
vt 0.973642 0.091055
vt 0.157906 0.980663
vt 0.179438 0.980663
vt 0.179438 0.976643
vt 0.157906 0.976643
vt 0.157906 0.943705
vt 0.179438 0.943705
vt 0.995174 0.085478
vt 0.973642 0.085478
vt 0.179438 0.971868
vt 0.157906 0.971868
vt 0.157906 0.949181
vt 0.179438 0.949181
vt 0.995174 0.079825
vt 0.973642 0.079825
vt 0.179438 0.966523
vt 0.157906 0.966523
vt 0.157906 0.954957
vt 0.179438 0.954957
vt 0.995174 0.074311
vt 0.973642 0.074311
vt 0.157906 0.960813
vt 0.179438 0.960813
vt 0.995174 0.069151
vt 0.973642 0.069151
vt 0.974259 0.197160
vt 0.952726 0.197160
vt 0.995174 0.064541
vt 0.973642 0.064541
vt 0.995174 0.060659
vt 0.973642 0.060659
vt 0.952726 0.079825
vt 0.952726 0.085478
vt 0.518539 0.537781
vt 0.513065 0.536105
vt 0.507591 0.535443
vt 0.507591 0.587157
vt 0.513065 0.588833
vt 0.518539 0.589495
vt 0.141782 0.887301
vt 0.120867 0.887301
vt 0.120867 0.936771
vt 0.141782 0.936771
vt 0.200354 0.966523
vt 0.200354 0.960813
vt 0.952726 0.074311
vt 0.200354 0.971868
vt 0.215926 0.843060
vt 0.236842 0.843060
vt 0.236842 0.793591
vt 0.215926 0.793591
vt 0.514414 0.796528
vt 0.515905 0.796593
vt 0.517368 0.796292
vt 0.518745 0.795637
vt 0.519985 0.794653
vt 0.521039 0.793378
vt 0.521868 0.791861
vt 0.522438 0.790160
vt 0.522729 0.788341
vt 0.522729 0.786473
vt 0.522438 0.784629
vt 0.521868 0.782879
vt 0.521039 0.781290
vt 0.519985 0.779923
vt 0.518745 0.778832
vt 0.517368 0.778058
vt 0.515905 0.777630
vt 0.514414 0.777565
vt 0.512952 0.777867
vt 0.511574 0.778522
vt 0.510335 0.779505
vt 0.509280 0.780780
vt 0.508452 0.782297
vt 0.507881 0.783998
vt 0.507591 0.785817
vt 0.507591 0.787685
vt 0.507881 0.789529
vt 0.508452 0.791280
vt 0.509280 0.792868
vt 0.510335 0.794235
vt 0.511574 0.795326
vt 0.512952 0.796100
vt 0.514414 0.681814
vt 0.515905 0.681878
vt 0.517368 0.681577
vt 0.518745 0.680922
vt 0.519985 0.679938
vt 0.521039 0.678663
vt 0.521868 0.677146
vt 0.522438 0.675445
vt 0.522729 0.673626
vt 0.522729 0.671759
vt 0.522438 0.669914
vt 0.521868 0.668164
vt 0.521039 0.666575
vt 0.519985 0.665209
vt 0.518745 0.664118
vt 0.517368 0.663343
vt 0.515905 0.662916
vt 0.514414 0.662851
vt 0.512952 0.663152
vt 0.511574 0.663807
vt 0.510335 0.664791
vt 0.509280 0.666066
vt 0.508452 0.667583
vt 0.507881 0.669284
vt 0.507590 0.671103
vt 0.507590 0.672971
vt 0.507881 0.674815
vt 0.508452 0.676565
vt 0.509280 0.678154
vt 0.510335 0.679520
vt 0.511574 0.680611
vt 0.512952 0.681386
vt 0.800414 0.259367
vt 0.801905 0.259432
vt 0.803368 0.259131
vt 0.804745 0.258475
vt 0.805985 0.257492
vt 0.807039 0.256217
vt 0.807868 0.254700
vt 0.808438 0.252999
vt 0.808729 0.251180
vt 0.808729 0.249312
vt 0.808438 0.247468
vt 0.807868 0.245717
vt 0.807039 0.244129
vt 0.805985 0.242762
vt 0.804745 0.241671
vt 0.803368 0.240897
vt 0.801905 0.240469
vt 0.800414 0.240404
vt 0.798952 0.240705
vt 0.797574 0.241360
vt 0.796335 0.242344
vt 0.795280 0.243619
vt 0.794452 0.245136
vt 0.793881 0.246837
vt 0.793591 0.248656
vt 0.793591 0.250524
vt 0.793881 0.252368
vt 0.794452 0.254119
vt 0.795280 0.255707
vt 0.796335 0.257074
vt 0.797574 0.258165
vt 0.798952 0.258939
vt 0.514414 0.710492
vt 0.515905 0.710557
vt 0.517368 0.710256
vt 0.518745 0.709601
vt 0.519985 0.708617
vt 0.521039 0.707342
vt 0.521868 0.705825
vt 0.522438 0.704124
vt 0.522729 0.702305
vt 0.522729 0.700437
vt 0.522438 0.698593
vt 0.521868 0.696843
vt 0.521039 0.695254
vt 0.519985 0.693888
vt 0.518745 0.692796
vt 0.517368 0.692022
vt 0.515905 0.691594
vt 0.514414 0.691530
vt 0.512952 0.691831
vt 0.511574 0.692486
vt 0.510335 0.693470
vt 0.509280 0.694745
vt 0.508452 0.696262
vt 0.507881 0.697962
vt 0.507591 0.699782
vt 0.507591 0.701649
vt 0.507881 0.703494
vt 0.508452 0.705244
vt 0.509280 0.706833
vt 0.510335 0.708199
vt 0.511574 0.709290
vt 0.512952 0.710065
vt 0.004826 0.793591
vt 0.004826 0.877650
vt 0.071714 0.877650
vt 0.071714 0.793591
vn 0.9592 0.0000 0.2827
vn 0.2827 0.0000 -0.9592
vn 0.0000 -1.0000 0.0000
vn -0.2827 0.0000 0.9592
vn -0.9592 0.0000 -0.2827
vn -0.9567 0.0105 -0.2908
vn -0.9546 0.0000 -0.2977
vn -0.9635 0.0000 -0.2677
vn -0.9615 -0.0105 -0.2747
vn -0.1760 0.7825 0.5973
vn -0.9615 0.0104 -0.2747
vn -0.1760 -0.7825 0.5972
vn 0.1760 0.7825 -0.5972
vn 0.1760 -0.7825 -0.5973
vn -0.9567 -0.0105 -0.2908
vn -0.9590 -0.0195 -0.2827
vn -0.9590 0.0196 -0.2827
vn 0.0000 1.0000 0.0000
vn -0.1761 -0.7825 0.5972
vn -0.1761 0.7825 0.5972
vn 0.1760 -0.7825 -0.5972
vn -0.2828 0.0000 0.9592
vn 0.7477 0.3858 0.5405
vn 0.7477 -0.3858 0.5405
vn 0.9213 0.3857 -0.0485
vn 0.9213 -0.3857 -0.0485
vn 0.8104 0.0000 0.5858
vn 0.9986 0.0000 -0.0526
vn 0.8768 0.4054 0.2585
vn 0.8768 -0.4054 0.2585
vn -0.0831 0.9559 0.2818
vn -0.0267 -0.9955 0.0905
vn -0.1342 0.8802 0.4553
vn 0.0287 -0.9948 -0.0975
vn -0.1801 0.7707 0.6112
vn 0.0831 -0.9559 -0.2818
vn -0.2192 0.6315 0.7437
vn 0.1342 -0.8802 -0.4553
vn -0.2498 0.4682 0.8476
vn 0.1801 -0.7707 -0.6112
vn -0.2709 0.2868 0.9189
vn 0.2192 -0.6316 -0.7437
vn -0.2814 0.0944 0.9549
vn 0.0811 0.9580 -0.2751
vn 0.2498 -0.4682 -0.8476
vn -0.2813 -0.1017 0.9542
vn 0.1324 0.8836 -0.4491
vn 0.2708 -0.2868 -0.9189
vn -0.2703 -0.2938 0.9169
vn 0.1786 0.7753 -0.6058
vn 0.2815 -0.0943 -0.9549
vn -0.2488 -0.4746 0.8443
vn 0.2179 0.6372 -0.7392
vn 0.2813 0.1016 -0.9542
vn -0.2179 -0.6372 0.7392
vn 0.2703 0.2938 -0.9169
vn -0.1786 -0.7753 0.6058
vn 0.0267 0.9955 -0.0905
vn 0.2489 0.4746 -0.8443
vn -0.1324 -0.8836 0.4491
vn -0.0287 0.9948 0.0975
vn -0.0811 -0.9580 0.2751
vn -0.2489 -0.4746 0.8443
vn 0.9592 -0.0001 0.2827
vn -0.1579 0.8294 0.5358
vn -0.2179 -0.6372 0.7393
vn 0.2179 0.6372 -0.7393
vn 0.1579 -0.8294 -0.5358
vn 0.9592 0.0001 0.2827
usemtl blanc
s off
f 33/1/1 40/2/1 37/3/1 23/4/1
f 25/5/2 20/6/2 24/7/2 28/8/2
f 27/9/3 22/10/3 13/11/3 18/12/3
f 11/13/4 16/14/4 17/15/4 14/16/4
f 15/17/5 26/18/5 25/19/5 28/20/5 27/21/5 18/22/5 17/23/5 16/24/5
f 13/25/6 3/26/6 5/27/6 14/28/6
f 14/28/7 5/27/7 8/29/7 11/30/7
f 20/31/8 29/32/8 30/33/8 24/34/8
f 19/35/9 1/36/9 29/32/9 20/31/9
f 15/37/10 16/38/10 11/39/10 9/40/10
f 24/34/11 30/33/11 31/41/11 22/42/11
f 13/43/12 14/16/12 17/15/12 18/44/12
f 19/45/13 20/6/13 25/5/13 26/46/13
f 27/9/14 28/47/14 24/48/14 22/10/14
f 11/30/15 8/29/15 7/49/15 9/50/15
f 9/50/16 7/49/16 1/36/16 19/35/16
f 22/42/17 31/41/17 3/26/17 13/25/17
f 15/37/18 9/40/18 19/51/18 26/52/18
f 3/53/19 35/54/19 36/55/19 5/56/19
f 8/57/20 38/58/20 39/59/20 7/60/20
f 7/60/18 39/59/18 34/61/18 1/62/18
f 30/63/21 21/64/21 12/65/21 31/66/21
f 31/66/3 12/65/3 35/67/3 3/68/3
f 5/56/22 36/55/22 38/69/22 8/70/22
f 29/71/2 10/72/2 21/73/2 30/74/2
f 1/75/13 34/76/13 10/72/13 29/71/13
f 39/59/23 38/58/23 40/77/23
f 37/78/24 36/55/24 35/54/24
f 34/76/25 33/79/25 10/72/25
f 12/65/26 21/64/26 23/80/26
f 40/2/27 38/81/27 36/82/27 37/3/27
f 23/4/28 21/83/28 10/84/28 33/1/28
f 39/85/29 40/2/29 33/1/29 34/86/29
f 12/87/30 23/4/30 37/3/30 35/88/30
usemtl noir_simple
f 41/89/5 2/90/5 4/91/5 6/92/5 32/93/5 68/94/5 67/95/5 66/96/5 65/97/5 64/98/5 63/99/5 62/100/5 61/101/5 60/102/5 59/103/5 58/104/5 57/105/5 56/106/5 55/107/5 54/108/5 53/109/5 52/110/5 51/111/5 50/112/5 49/113/5 48/114/5 47/115/5 46/116/5 45/117/5 44/118/5 43/119/5 42/120/5
f 69/121/1 74/122/1 75/123/1 76/124/1 77/125/1 78/126/1 79/127/1 80/128/1 81/129/1 82/130/1 83/131/1 84/132/1 85/133/1 86/134/1 87/135/1 88/136/1 89/137/1 90/138/1 91/139/1 92/140/1 93/141/1 94/142/1 95/143/1 96/144/1 97/145/1 98/146/1 99/147/1 100/148/1 73/149/1 72/150/1 71/151/1 70/152/1
f 44/153/31 76/154/31 75/155/31 43/156/31
f 58/157/32 90/158/32 89/159/32 57/160/32
f 45/161/33 77/162/33 76/154/33 44/153/33
f 59/163/34 91/164/34 90/158/34 58/157/34
f 46/165/35 78/166/35 77/162/35 45/161/35
f 60/167/36 92/168/36 91/164/36 59/163/36
f 47/169/37 79/170/37 78/166/37 46/165/37
f 61/171/38 93/172/38 92/168/38 60/167/38
f 48/173/39 80/174/39 79/170/39 47/169/39
f 62/175/40 94/176/40 93/172/40 61/171/40
f 49/177/41 81/178/41 80/179/41 48/180/41
f 63/181/42 95/182/42 94/176/42 62/175/42
f 50/183/43 82/184/43 81/178/43 49/177/43
f 41/185/44 69/186/44 70/187/44 2/188/44
f 64/189/45 96/190/45 95/191/45 63/192/45
f 51/193/46 83/194/46 82/184/46 50/183/46
f 2/195/47 70/196/47 71/197/47 4/198/47
f 65/199/48 97/200/48 96/190/48 64/189/48
f 52/201/49 84/202/49 83/194/49 51/193/49
f 4/198/50 71/197/50 72/203/50 6/204/50
f 66/205/51 98/206/51 97/200/51 65/199/51
f 53/207/52 85/208/52 84/202/52 52/201/52
f 6/204/53 72/203/53 73/209/53 32/210/53
f 67/211/54 99/212/54 98/206/54 66/205/54
f 54/213/55 86/214/55 85/208/55 53/207/55
f 68/215/56 100/216/56 99/212/56 67/211/56
f 55/217/57 87/218/57 86/214/57 54/213/57
f 42/219/58 74/220/58 69/186/58 41/185/58
f 32/210/59 73/209/59 100/216/59 68/215/59
f 56/221/60 88/222/60 87/218/60 55/217/60
f 43/156/61 75/155/61 74/220/61 42/219/61
f 57/223/62 89/224/62 88/222/62 56/221/62
f 85/208/63 104/225/63 103/226/63 84/202/63
f 103/227/64 104/228/64 105/229/64 106/230/64 102/231/64 101/232/64
f 84/233/65 103/234/65 101/235/65 72/236/65
f 73/209/59 102/237/59 106/238/59 100/216/59
f 86/214/66 105/239/66 104/225/66 85/208/66
f 72/203/67 101/240/67 102/237/67 73/209/67
f 100/241/68 106/242/68 105/243/68 86/244/68
f 111/245/69 116/246/69 117/247/69 118/248/69 119/249/69 120/250/69 121/251/69 122/252/69 123/253/69 124/254/69 125/255/69 126/256/69 127/257/69 128/258/69 129/259/69 130/260/69 131/261/69 132/262/69 133/263/69 134/264/69 135/265/69 136/266/69 137/267/69 138/268/69 139/269/69 140/270/69 141/271/69 142/272/69 115/273/69 114/274/69 113/275/69 112/276/69
f 143/277/1 148/278/1 149/279/1 150/280/1 151/281/1 152/282/1 153/283/1 154/284/1 155/285/1 156/286/1 157/287/1 158/288/1 159/289/1 160/290/1 161/291/1 162/292/1 163/293/1 164/294/1 165/295/1 166/296/1 167/297/1 168/298/1 169/299/1 170/300/1 171/301/1 172/302/1 173/303/1 174/304/1 147/305/1 146/306/1 145/307/1 144/308/1
f 175/309/69 180/310/69 181/311/69 182/312/69 183/313/69 184/314/69 185/315/69 186/316/69 187/317/69 188/318/69 189/319/69 190/320/69 191/321/69 192/322/69 193/323/69 194/324/69 195/325/69 196/326/69 197/327/69 198/328/69 199/329/69 200/330/69 201/331/69 202/332/69 203/333/69 204/334/69 205/335/69 206/336/69 179/337/69 178/338/69 177/339/69 176/340/69
f 207/341/1 212/342/1 213/343/1 214/344/1 215/345/1 216/346/1 217/347/1 218/348/1 219/349/1 220/350/1 221/351/1 222/352/1 223/353/1 224/354/1 225/355/1 226/356/1 227/357/1 228/358/1 229/359/1 230/360/1 231/361/1 232/362/1 233/363/1 234/364/1 235/365/1 236/366/1 237/367/1 238/368/1 211/369/1 210/370/1 209/371/1 208/372/1
usemtl bleu_
f 107/373/5 109/374/5 110/375/5 108/376/5
