# Blender v3.6.1 OBJ File: 'Water tank.blend'
# www.blender.org
mtllib fondation.mtl
o Cube_Cube.001
v -5.269938 -0.073499 2.475912
v -5.269938 0.357541 2.475912
v -5.269938 -0.073499 -2.475912
v -5.269938 0.357541 -2.475912
v 5.004796 -0.073499 2.475912
v 5.004796 0.357541 2.475912
v 5.004796 -0.073499 -2.475912
v 5.004796 0.357541 -2.475912
vt 0.000000 0.500000
vt 0.000000 0.000000
vt 0.295762 0.000000
vt 0.295762 0.500000
vt 0.591525 0.000000
vt 0.591525 0.500000
vt 0.887287 0.000000
vt 0.887287 0.500000
vt 0.000000 1.000000
vt 0.000000 0.500000
vt 0.295762 0.500000
vt 0.295762 1.000000
vt 0.591525 0.795762
vt 0.295762 0.795762
vt 0.295762 0.500000
vt 0.591525 0.500000
vt 0.887287 0.795762
vt 0.591525 0.795762
vt 0.591525 0.500000
vt 0.887287 0.500000
vn -1.0000 0.0000 0.0000
vn 0.0000 0.0000 -1.0000
vn 1.0000 0.0000 0.0000
vn 0.0000 0.0000 1.0000
vn 0.0000 -1.0000 0.0000
vn 0.0000 1.0000 0.0000
usemtl beton
s off
f 1/1/1 2/2/1 4/3/1 3/4/1
f 3/4/2 4/3/2 8/5/2 7/6/2
f 7/6/3 8/5/3 6/7/3 5/8/3
f 5/9/4 6/10/4 2/11/4 1/12/4
f 3/13/5 7/14/5 5/15/5 1/16/5
f 8/17/6 4/18/6 2/19/6 6/20/6
